<?xml version="1.0" encoding="UTF-8" standalone="no"?>
<!-- Created with Inkscape (http://www.inkscape.org/) -->

<svg
   width="280mm"
   height="277mm"
   viewBox="0 0 280 277"
   version="1.1"
   id="svg5"
   inkscape:version="1.1.2 (0a00cf5339, 2022-02-04)"
   sodipodi:docname="bang1.svg"
   xmlns:inkscape="http://www.inkscape.org/namespaces/inkscape"
   xmlns:sodipodi="http://sodipodi.sourceforge.net/DTD/sodipodi-0.dtd"
   xmlns="http://www.w3.org/2000/svg"
   xmlns:svg="http://www.w3.org/2000/svg">
  <sodipodi:namedview
     id="namedview7"
     pagecolor="#ffffff"
     bordercolor="#666666"
     borderopacity="1.0"
     inkscape:pageshadow="2"
     inkscape:pageopacity="0.0"
     inkscape:pagecheckerboard="0"
     inkscape:document-units="mm"
     showgrid="false"
     inkscape:zoom="0.60756173"
     inkscape:cx="599.11608"
     inkscape:cy="181.05156"
     inkscape:window-width="2560"
     inkscape:window-height="1360"
     inkscape:window-x="0"
     inkscape:window-y="32"
     inkscape:window-maximized="1"
     inkscape:current-layer="text2790-7"
     width="211mm" />
  <defs
     id="defs2" />
  <g
     inkscape:label="Layer 1"
     inkscape:groupmode="layer"
     id="layer1">
    <path
       sodipodi:type="star"
       style="fill:#000000;fill-opacity:1"
       id="path846"
       inkscape:flatsided="false"
       sodipodi:sides="7"
       sodipodi:cx="177.61003"
       sodipodi:cy="405.39249"
       sodipodi:r1="330.26004"
       sodipodi:r2="165.13004"
       sodipodi:arg1="0.54638611"
       sodipodi:arg2="0.99518506"
       inkscape:rounded="0"
       inkscape:randomized="0"
       d="M 459.78681,576.99656 267.49818,543.91342 219.37891,733.00057 125.35435,562.03626 -52.48181,642.30901 22.560111,462.20314 -151.07868,373.21448 36.521627,319.59044 -2.1662487,128.35064 156.72559,241.58843 282.12139,92.104967 292.65596,286.93421 487.70984,291.77118 341.9544,421.48149 Z"
       transform="matrix(0.37278036,-0.23904164,0.16980532,0.3485409,3.5810489,37.236115)"
       inkscape:transform-center-x="-3.1682746"
       inkscape:transform-center-y="1.7002787" />
    <path
       sodipodi:type="star"
       style="fill:#ff5c5c;fill-opacity:1"
       id="path846-3"
       inkscape:flatsided="false"
       sodipodi:sides="7"
       sodipodi:cx="177.61003"
       sodipodi:cy="405.39249"
       sodipodi:r1="330.26004"
       sodipodi:r2="165.13004"
       sodipodi:arg1="0.54638611"
       sodipodi:arg2="0.99518506"
       inkscape:rounded="0"
       inkscape:randomized="0"
       transform="matrix(0.31042855,-0.1990592,0.14945017,0.3067601,22.431909,47.206479)"
       inkscape:transform-center-x="-3.1993118"
       inkscape:transform-center-y="0.7851821"
       d="M 459.78681,576.99656 267.49818,543.91342 219.37891,733.00057 125.35435,562.03626 -52.48181,642.30901 22.560111,462.20314 -151.07868,373.21448 36.521627,319.59044 -2.1662487,128.35064 156.72559,241.58843 282.12139,92.104967 292.65596,286.93421 487.70984,291.77118 341.9544,421.48149 Z" />
    <path
       sodipodi:type="star"
       style="fill:#ffab5c"
       id="path846-3-6"
       inkscape:flatsided="false"
       sodipodi:sides="7"
       sodipodi:cx="177.61003"
       sodipodi:cy="405.39249"
       sodipodi:r1="330.26004"
       sodipodi:r2="165.13004"
       sodipodi:arg1="0.54638611"
       sodipodi:arg2="0.99518506"
       inkscape:rounded="0"
       inkscape:randomized="0"
       transform="matrix(0.25550661,-0.16384103,0.12300901,0.25248723,42.05657,63.767303)"
       inkscape:transform-center-x="-2.6332614"
       inkscape:transform-center-y="0.64626731"
       d="M 459.78681,576.99656 267.49818,543.91342 219.37891,733.00057 125.35435,562.03626 -52.48181,642.30901 22.560111,462.20314 -151.07868,373.21448 36.521627,319.59044 -2.1662487,128.35064 156.72559,241.58843 282.12139,92.104967 292.65596,286.93421 487.70984,291.77118 341.9544,421.48149 Z" />
    <g
       aria-label="BANG"
       transform="matrix(0.92709583,0.25470231,0.07975839,1.1005493,0,0)"
       id="text2790-7"
       style="font-size:64.4495px;line-height:1.25;stroke-width:1.61124">
      <path
         d="m 90.700604,110.79261 q 0,2.32018 -0.773394,4.51146 -0.773394,2.19129 -2.51353,4.31812 -1.675687,2.12683 -5.091511,3.41582 -3.415823,1.28899 -8.120637,1.28899 H 53.062096 V 77.343317 h 20.946087 q 4.382567,0 7.540592,1.28899 3.222475,1.28899 4.769263,3.351374 1.611238,1.997935 2.320182,3.93142 0.708945,1.933485 0.708945,3.80252 0,3.029127 -1.482339,5.28486 -1.482338,2.191283 -4.962611,4.382566 7.798389,4.575913 7.798389,11.407563 z M 62.729521,85.399505 v 10.634168 h 10.505268 q 6.831648,0 6.831648,-5.28486 0,-5.349308 -6.831648,-5.349308 z m 0,18.690355 v 12.18096 h 11.53646 q 7.153895,0 7.153895,-6.05826 0,-6.1227 -7.153895,-6.1227 z"
         style="font-weight:600;font-family:FreeSans;-inkscape-font-specification:'FreeSans Semi-Bold'"
         id="path51059" />
      <path
         d="m 124.5365,114.85293 h -17.59471 l -3.15803,9.47407 H 93.922987 L 110.61541,77.343317 h 10.69861 L 137.5553,124.327 h -9.92522 z m -2.64243,-8.05619 -6.1227,-18.368109 -6.1227,18.368109 z"
         style="font-weight:600;font-family:FreeSans;-inkscape-font-specification:'FreeSans Semi-Bold'"
         id="path51061" />
      <path
         d="M 171.90679,124.327 153.02308,91.844455 V 124.327 h -9.66742 V 77.343317 h 9.92522 l 18.62591,31.966953 V 77.343317 h 9.66742 V 124.327 Z"
         style="font-weight:600;font-family:FreeSans;-inkscape-font-specification:'FreeSans Semi-Bold'"
         id="path51063" />
      <path
         d="m 223.3374,92.231152 q -2.57798,-7.540592 -11.21422,-7.540592 -6.1227,0 -9.66742,4.318117 -3.48028,4.318116 -3.48028,11.923153 0,7.21835 3.73808,11.85871 3.80252,4.64037 9.66742,4.64037 0.90229,0 2.06239,-0.19335 1.22454,-0.2578 2.90022,-0.90229 1.67569,-0.70895 3.09358,-1.80459 1.41789,-1.09564 2.51353,-3.02913 1.09564,-1.99793 1.35344,-4.51146 H 213.60552 V 98.9339 h 18.81926 v 25.3931 h -5.80046 l -1.16009,-6.18715 q -2.70688,3.93142 -6.05825,5.73601 -3.35138,1.80458 -8.12064,1.80458 -9.53853,0 -15.79013,-6.96054 -6.18715,-6.96055 -6.18715,-17.65917 0,-10.956412 6.31605,-17.788059 6.31605,-6.831647 16.43462,-6.831647 8.50734,0 13.98555,4.253667 5.4782,4.253667 6.3805,11.536461 z"
         style="font-weight:600;font-family:FreeSans;-inkscape-font-specification:'FreeSans Semi-Bold'"
         id="path51065" />
    </g>
    <g
       aria-label="BANG"
       transform="matrix(0.92709583,0.25470231,0.07975839,1.1005493,0,0)"
       id="text2790"
       style="font-size:64.4495px;line-height:1.25;fill:#ffc619;stroke:#000000;stroke-width:1.61124">
      <path
         d="m 83.954373,103.35955 q 0,2.32018 -0.773394,4.51146 -0.773394,2.19129 -2.51353,4.31812 -1.675687,2.12683 -5.091511,3.41582 -3.415824,1.28899 -8.120637,1.28899 H 46.315865 V 69.910258 h 20.946087 q 4.382566,0 7.540592,1.28899 3.222475,1.28899 4.769263,3.351374 1.611238,1.997934 2.320182,3.931419 0.708945,1.933485 0.708945,3.802521 0,3.029126 -1.482339,5.284859 -1.482338,2.191283 -4.962611,4.382566 7.798389,4.575914 7.798389,11.407563 z M 55.98329,77.966445 v 10.634168 h 10.505268 q 6.831647,0 6.831647,-5.284859 0,-5.349309 -6.831647,-5.349309 z m 0,18.690355 v 12.18096 h 11.53646 q 7.153895,0 7.153895,-6.05826 0,-6.1227 -7.153895,-6.1227 z"
         style="font-weight:600;font-family:FreeSans;-inkscape-font-specification:'FreeSans Semi-Bold'"
         id="path51050" />
      <path
         d="m 117.79027,107.41987 h -17.59471 l -3.15803,9.47407 H 87.176756 L 103.86918,69.910258 h 10.69861 l 16.24128,46.983682 h -9.92523 z m -2.64243,-8.05619 -6.1227,-18.368108 -6.12271,18.368108 z"
         style="font-weight:600;font-family:FreeSans;-inkscape-font-specification:'FreeSans Semi-Bold'"
         id="path51052" />
      <path
         d="M 165.16056,116.89394 146.27685,84.411395 v 32.482545 h -9.66742 V 69.910258 h 9.92522 l 18.62591,31.966952 V 69.910258 h 9.66742 v 46.983682 z"
         style="font-weight:600;font-family:FreeSans;-inkscape-font-specification:'FreeSans Semi-Bold'"
         id="path51054" />
      <path
         d="m 216.59117,84.798092 q -2.57798,-7.540591 -11.21422,-7.540591 -6.1227,0 -9.66742,4.318116 -3.48028,4.318117 -3.48028,11.923158 0,7.218345 3.73807,11.858705 3.80253,4.64037 9.66743,4.64037 0.90229,0 2.06238,-0.19335 1.22454,-0.2578 2.90023,-0.90229 1.67569,-0.70895 3.09358,-1.80459 1.41789,-1.09564 2.51353,-3.02913 1.09564,-1.99793 1.35344,-4.511462 H 206.85929 V 91.50084 h 18.81925 v 25.3931 h -5.80045 l -1.16009,-6.18715 q -2.70688,3.93142 -6.05825,5.73601 -3.35138,1.80458 -8.12064,1.80458 -9.53853,0 -15.79013,-6.96054 -6.18715,-6.96055 -6.18715,-17.659166 0,-10.956415 6.31605,-17.788062 6.31605,-6.831647 16.43462,-6.831647 8.50734,0 13.98554,4.253667 5.47821,4.253667 6.3805,11.53646 z"
         style="font-weight:600;font-family:FreeSans;-inkscape-font-specification:'FreeSans Semi-Bold'"
         id="path51056" />
    </g>
  </g>
</svg>
